<svg xmlns="http://www.w3.org/2000/svg" viewBox="0 0 350 84.05" width="60%"><path class="cls-1" d="M255.05 80.51a5.79 5.79 0 002.15.36c1.15 0 2.66-.55 2.66-2.17 0-2.51-3.76-2.33-3.76-3.75 0-1 .68-1.27 1.65-1.27a4.31 4.31 0 011.69.36l.09-.83a6.09 6.09 0 00-1.88-.34c-1.26 0-2.49.57-2.49 2.08 0 2.22 3.67 1.93 3.67 3.75 0 .87-.79 1.36-1.69 1.36a4.4 4.4 0 01-2-.48zm-6.65-4.18a2.5 2.5 0 012.25-2.65c1.41 0 1.95 1.32 1.95 2.65zm4.66 3.16a4.83 4.83 0 01-2.14.57c-1.65 0-2.52-1.3-2.52-2.92h5.23v-.48c0-2-.88-3.79-3-3.79-1.93 0-3.22 1.66-3.22 4s.94 4 3.47 4a6.25 6.25 0 002.22-.42zm-8.75 1.2h.95V69.45h-.95zm-2.58-7.64h-.94v.87a2.5 2.5 0 00-2.38-1c-2.25 0-3.15 1.68-3.15 4 0 1.69.78 3.82 3.22 3.82a2.37 2.37 0 002.33-1.5c0 2.16-.21 3.93-2.64 3.93a5.18 5.18 0 01-2.25-.54l-.07.94a7.84 7.84 0 002.3.41c2.63 0 3.58-1.74 3.58-3.87zm-5.47 3.82c0-1.48.47-3.19 2.27-3.19s2.26 1.35 2.26 3.19c0 1.39-.61 3-2.32 3s-2.21-1.51-2.21-3M233 73.05h-.94v4.22c0 1.28-.54 2.79-2.26 2.79-1.31 0-1.82-.93-1.82-2.37v-4.64h-.94v4.88c0 1.68.72 2.94 2.61 2.94a2.41 2.41 0 002.47-1.54v1.36h.91c-.06-.61-.06-1.21-.06-1.8zm-13.29 3.28a2.5 2.5 0 012.29-2.65c1.41 0 1.95 1.32 1.95 2.65zm4.66 3.16a4.79 4.79 0 01-2.14.57c-1.65 0-2.52-1.3-2.52-2.92H225v-.48c0-2-.88-3.79-3-3.79-1.93 0-3.22 1.66-3.22 4s.94 4 3.48 4a6.19 6.19 0 002.21-.42zm-6.74-6.44h-1l-2.22 6.61-2.12-6.61h-1l2.59 7.64H215zm-8.82 4.25c0 .83 0 2.76-2.27 2.76-.87 0-1.59-.37-1.59-1.38 0-1.68 2-1.84 3.59-1.84h.27zm.09 3.39h.92a11.57 11.57 0 01-.07-1.6v-3.37c0-2-.79-2.85-2.68-2.85a6.12 6.12 0 00-2.25.52v.92a4 4 0 012.25-.63c1.27 0 1.74.66 1.74 2V76h-.18c-2 0-4.71.12-4.71 2.68 0 .69.35 2.16 2.52 2.16a2.69 2.69 0 002.43-1.41zm-15.66-.18a5.7 5.7 0 002.14.36c1.15 0 2.67-.55 2.67-2.17 0-2.51-3.76-2.33-3.76-3.75 0-1 .67-1.27 1.65-1.27a4.39 4.39 0 011.69.36l.09-.83a6.15 6.15 0 00-1.89-.34c-1.26 0-2.49.57-2.49 2.08 0 2.22 3.67 1.93 3.67 3.75 0 .87-.79 1.36-1.69 1.36a4.43 4.43 0 01-2-.48zm-6.66-4.18a2.5 2.5 0 012.25-2.65c1.41 0 1.95 1.32 1.95 2.65zm4.66 3.16a4.79 4.79 0 01-2.14.57c-1.65 0-2.52-1.3-2.52-2.92h5.23v-.48c0-2-.88-3.79-3-3.79-1.93 0-3.22 1.66-3.22 4s.95 4 3.48 4a6.19 6.19 0 002.21-.42zm-13.17-2.62c0-1.48.47-3.19 2.27-3.19s2.26 1.79 2.26 3.19-.58 3.19-2.26 3.19-2.27-1.71-2.27-3.19m5.47-7.42h-.94v4.89a2.55 2.55 0 00-2.38-1.47c-2.25 0-3.15 1.68-3.15 4s1 4 3.15 4a2.45 2.45 0 002.38-1.39v1.21h.94zm-17.84 6.88a2.49 2.49 0 012.3-2.65c1.4 0 1.94 1.32 1.94 2.65zm4.66 3.16a4.83 4.83 0 01-2.14.57c-1.65 0-2.52-1.3-2.52-2.92h5.23v-.48c0-2-.89-3.79-3-3.79-1.94 0-3.22 1.66-3.22 4s.94 4 3.47 4a6.29 6.29 0 002.22-.42zm-8.75 1.2h.94V69.45h-.94zm-2.69-10.94H158V71h.94zM158 80.69h.94v-7.64H158zm-6.8-.18a5.73 5.73 0 002.14.36c1.16 0 2.67-.55 2.67-2.17 0-2.51-3.76-2.33-3.76-3.75 0-1 .67-1.27 1.65-1.27a4.39 4.39 0 011.69.36l.09-.83a6.1 6.1 0 00-1.89-.34c-1.26 0-2.48.57-2.48 2.08 0 2.22 3.67 1.93 3.67 3.75 0 .87-.8 1.36-1.7 1.36a4.43 4.43 0 01-2-.48zM147.64 77h-4.54l2.28-5.77zm-7.06 3.7h1l1.12-2.8h5.3l1.13 2.8h1.08L146 70.23h-1.17zm-12.11 0h.95v-4.24c0-1.27.54-2.78 2.26-2.78 1.31 0 1.81.93 1.81 2.36v4.65h.95V75.8c0-1.67-.72-2.93-2.61-2.93a2.41 2.41 0 00-2.47 1.54v-1.36h-.91c.05.61.05 1.21.05 1.79zm-8.18-3.82c0-1.77.89-3.19 2.53-3.19s2.54 1.42 2.54 3.19-.89 3.19-2.54 3.19-2.53-1.42-2.53-3.19m-1 0c0 2.08 1.09 4 3.56 4s3.57-1.92 3.57-4-1.09-4-3.57-4-3.56 1.92-3.56 4m-2.1-7.12h-.94V71h.94zm-.94 10.94h.94v-7.65h-.94zm-2-7.64h-1.74v-2.18l-.94.33v1.84H110v.81h1.5v4.46c0 1.4.06 2.55 1.74 2.55a3.37 3.37 0 001.15-.21l-.05-.78a2.15 2.15 0 01-.88.18c-.76 0-1-.57-1-1.26v-4.94h1.74zm-6.78 4.25c0 .83 0 2.76-2.27 2.76-.87 0-1.59-.37-1.59-1.38 0-1.68 2-1.84 3.59-1.84h.27zm.09 3.39h.92a11.57 11.57 0 01-.07-1.6v-3.38c0-2-.79-2.85-2.68-2.85a6.12 6.12 0 00-2.25.52v.92a4 4 0 012.25-.63c1.27 0 1.74.66 1.74 2V76h-.18c-2 0-4.71.12-4.71 2.68 0 .69.35 2.16 2.52 2.16a2.69 2.69 0 002.43-1.41zm-12.47-3.83c0-1.48.46-3.19 2.26-3.19s2.27 1.79 2.27 3.19-.59 3.19-2.27 3.19-2.26-1.71-2.26-3.19m5.47-7.42h-.94v4.89a2.59 2.59 0 00-2.39-1.47c-2.24 0-3.14 1.68-3.14 4s1 4 3.14 4a2.46 2.46 0 002.39-1.39v1.21h.94zM85.88 80.69h.94v-4.23c0-1.27.54-2.78 2.26-2.78 1.31 0 1.81.93 1.81 2.36v4.65h1V75.8c0-1.67-.72-2.93-2.61-2.93a2.41 2.41 0 00-2.47 1.54v-1.36h-.91c.06.61.06 1.21.06 1.79zm-8.19-3.82c0-1.77.89-3.19 2.54-3.19s2.53 1.42 2.53 3.19-.88 3.19-2.53 3.19-2.54-1.42-2.54-3.19m-1 0c0 2.08 1.09 4 3.57 4s3.56-1.92 3.56-4-1.09-4-3.56-4-3.57 1.92-3.57 4m-6.4 3.82h1v-4.93h3.76v-.9H71.3v-3.73h3.94v-.9h-5zm273.43-21.92a2.26 2.26 0 012.18-2.26 2.05 2.05 0 012 2.26zm5.16 3a4.75 4.75 0 01-2.49.81 2.66 2.66 0 01-2.67-2.7h5.78c0-2.6-.87-4.57-3.57-4.57a3.76 3.76 0 00-3.79 4.09c0 2.64 1.32 4.38 4.19 4.38a6.29 6.29 0 002.55-.52zm-9-9.76h-1.68v1.68h1.68zm-1.58 11.58h1.49V55.5h-1.49zm-6.74-1.2c-1.4 0-2.26-1.34-2.26-2.86s.75-3 2.26-3 2.36 1.45 2.36 3.13a2.53 2.53 0 01-2.36 2.75m3.85-6.89H334v1.2a2.65 2.65 0 00-2.66-1.39c-2.45 0-3.62 2.22-3.62 4.3s1.14 4 3.46 4a3.37 3.37 0 002.71-1.25v.79c0 1.71-.93 2.78-2.5 2.78a6.19 6.19 0 01-2.92-.73l-.16 1.38a8.22 8.22 0 002.9.55c2.9 0 4.17-1.41 4.17-3.87zm-16 4a2.58 2.58 0 115.07 0c0 1.44-.78 3-2.53 3s-2.54-1.59-2.54-3m-1.58 0a4.12 4.12 0 108.23 0 4.12 4.12 0 10-8.23 0m-3.84 4h1.49V51.69H314zm-9-4a2.78 2.78 0 012.54-3c1.59 0 2.52 1.5 2.52 3s-.77 3-2.52 3S305 61 305 59.55m-1.58 0a4.12 4.12 0 108.23 0 4.12 4.12 0 10-8.23 0m-13.74 4h1.49v-4.04c0-1.5.6-3 2.12-3 1.21 0 1.45 1.26 1.45 2.26v4.82h1.49v-4.08c0-1.5.6-3 2.12-3 1.21 0 1.45 1.26 1.45 2.26v4.82h1.49V58.4c0-1.76-.75-3.09-2.81-3.09a2.86 2.86 0 00-2.5 1.57 2.4 2.4 0 00-2.3-1.57 2.75 2.75 0 00-2.58 1.36V55.5h-1.39zm-4.36 0h1.48V51.69h-1.48zm-4.32-3.1a2 2 0 01-2.25 2.13 1.42 1.42 0 01-1.51-1.32c0-1.43 2-1.56 2.81-1.56h1zm-4.35-3.11a3.82 3.82 0 012.35-.83c1.49 0 2 .72 2 2.12h-1.59c-1.54 0-3.75.64-3.75 2.67 0 1.76 1.22 2.52 3 2.52a3 3 0 002.51-1.24v1.05h1.4a10.69 10.69 0 01-.07-1.58v-3.39c0-2.21-.94-3.35-3.25-3.35a5.22 5.22 0 00-2.67.76zm-2.49-1.84H272v-2.35l-1.49.48v1.87h-1.82v1.2h1.82v4.73c0 1.62.95 2.35 2.49 2.35a4.84 4.84 0 001.27-.22v-1.27a1.88 1.88 0 01-1 .29 1.29 1.29 0 01-1.27-1.45V56.7h2.14zM260 63.59h1.49v-3.74c0-2 .76-3.34 2.46-3.34 1.3.08 1.72 1 1.72 2.89v4.19h1.49v-4.81c0-2.17-.94-3.47-3-3.47a3 3 0 00-2.61 1.35v-5H260zm-3.74-4.08c0 1.27-.64 3.07-2.24 3.07s-2.38-1.67-2.38-3c0-1.51.78-3.05 2.4-3.05s2.25 1.54 2.22 3m-6.11 7.41h1.49v-4.46a2.89 2.89 0 002.7 1.3c2.44 0 3.47-2.16 3.47-4.38s-1.14-4.09-3.48-4.09a3.23 3.23 0 00-2.75 1.33V55.5h-1.43zm-8.81-7.37a2.58 2.58 0 115.07 0c0 1.44-.78 3-2.53 3s-2.54-1.59-2.54-3m-1.58 0a4.12 4.12 0 108.23 0 4.12 4.12 0 10-8.23 0m-4.48-3.15h1.37l1.35-3.9h-1.77zm-8.36 3.11c0-1.47.6-3 2.23-3s2.39 1.54 2.39 3.05c0 1.35-.7 3-2.38 3s-2.27-1.8-2.24-3.07m4.68 4.08h1.4v-11.9h-1.49v4.92a2.9 2.9 0 00-2.68-1.3c-2.35 0-3.49 1.92-3.49 4.09s1 4.38 3.47 4.38a3.25 3.25 0 002.76-1.33zm-18.23-4.82a2.25 2.25 0 012.18-2.26 2 2 0 012 2.26zm5.16 3a4.79 4.79 0 01-2.49.81 2.66 2.66 0 01-2.67-2.7h5.78c0-2.6-.87-4.57-3.57-4.57a3.75 3.75 0 00-3.79 4.09c0 2.64 1.31 4.38 4.19 4.38a6.29 6.29 0 002.55-.52zM206 63.59h1.49v-3.68c0-2 .87-3.3 2.2-3.3a2.23 2.23 0 01.83.14v-1.33a4.45 4.45 0 00-1-.11 2.47 2.47 0 00-2.11 1.44V55.5H206zM203.19 52h-1.68v1.68h1.68zm-1.58 11.58h1.49V55.5h-1.49zm-4.36-3.14a2 2 0 01-2.25 2.14 1.43 1.43 0 01-1.51-1.32c0-1.43 2-1.56 2.81-1.56h1zm-4.35-3.11a3.77 3.77 0 012.35-.83c1.49 0 2 .72 2 2.12h-1.59c-1.54 0-3.76.64-3.76 2.67 0 1.76 1.22 2.52 3 2.52a3 3 0 002.5-1.24v1.05h1.39a12.46 12.46 0 01-.07-1.58v-3.38c0-2.21-.93-3.35-3.25-3.35a5.16 5.16 0 00-2.66.76zm-2.49-1.84h-2.15v-2.34l-1.49.48v1.87H185v1.2h1.82v4.73a2.17 2.17 0 002.49 2.35 4.84 4.84 0 001.27-.22v-1.27a1.84 1.84 0 01-1 .29 1.29 1.29 0 01-1.26-1.45V56.7h2.15zm-7.1-3.49h-1.68v1.68h1.68zm-1.58 11.58h1.49V55.5h-1.49zm-7.2-.25a4.68 4.68 0 002.22.44 2.54 2.54 0 002.82-2.52c0-2.59-3.51-2.11-3.51-3.76 0-.67.67-1 1.43-1a4.27 4.27 0 011.57.42l.13-1.3a6.09 6.09 0 00-1.86-.32c-1.6 0-2.85.81-2.85 2.49 0 2.27 3.51 2.14 3.51 3.62 0 .87-.85 1.16-1.53 1.16a3.94 3.94 0 01-1.85-.57zm-5.65.25h1.49v-3.67c0-2 .87-3.3 2.2-3.3a2.23 2.23 0 01.83.14v-1.33a4.45 4.45 0 00-1-.11 2.45 2.45 0 00-2.1 1.44V55.5h-1.39zm-7.94-4.82a2.25 2.25 0 012.18-2.26 2 2 0 012 2.26zm5.16 3a4.79 4.79 0 01-2.49.81 2.66 2.66 0 01-2.67-2.7h5.78c0-2.6-.87-4.57-3.57-4.57a3.76 3.76 0 00-3.79 4.09c0 2.64 1.31 4.38 4.19 4.38a6.29 6.29 0 002.55-.52zm-7.8-6.27h-1.49l-2.24 6.6-2.19-6.6h-1.64l2.91 8.09h1.77zM149 52h-1.68v1.68H149zm-1.58 11.58h1.49V55.5h-1.49zm-10 0h1.49v-3.73c0-2 .76-3.34 2.46-3.34 1.3.08 1.71 1 1.71 2.89v4.19h1.49v-4.81c0-2.17-.93-3.47-3-3.47a2.93 2.93 0 00-2.65 1.47V55.5h-1.44zm-2.7-8.09h-1.52v3.74c0 2-.76 3.34-2.46 3.34-1.3-.08-1.71-1-1.71-2.89V55.5h-1.49v4.81c0 2.17.93 3.47 3 3.47a2.92 2.92 0 002.66-1.47v1.28h1.44zM115 58.77a2.25 2.25 0 012.18-2.26 2 2 0 012 2.26zm5.16 3a4.82 4.82 0 01-2.49.81 2.66 2.66 0 01-2.67-2.7h5.78c0-2.6-.87-4.57-3.57-4.57a3.75 3.75 0 00-3.79 4.09c0 2.64 1.31 4.38 4.19 4.38a6.29 6.29 0 002.55-.52zm-8.14-6.14a5.47 5.47 0 00-1.81-.32 4 4 0 00-4.12 4.24 4.09 4.09 0 004.12 4.23 4.63 4.63 0 001.87-.33l-.08-1.33a3.11 3.11 0 01-1.6.46 2.74 2.74 0 01-2.7-3 2.78 2.78 0 012.61-3 4.26 4.26 0 011.61.35zM104 52h-1.68v1.68H104zm-1.58 11.58h1.48V55.5h-1.48zm-1.8-8.09h-1.5l-2.24 6.6-2.19-6.6H93l2.9 8.09h1.78zm-12.83 8.1h1.49v-3.68c0-2 .88-3.3 2.21-3.3a2.21 2.21 0 01.82.14v-1.33a4.35 4.35 0 00-1-.11 2.46 2.46 0 00-2.11 1.44V55.5h-1.4zm-7.93-4.82A2.24 2.24 0 0182 56.51a2 2 0 012 2.26zm5.16 3a4.83 4.83 0 01-2.5.81 2.65 2.65 0 01-2.66-2.7h5.77c0-2.6-.87-4.57-3.57-4.57-2.28 0-3.78 1.7-3.78 4.09 0 2.64 1.31 4.38 4.18 4.38a6.35 6.35 0 002.54-.52zm-8.9-9.05a7.68 7.68 0 00-2.37-.39c-2 0-3.55 1-3.55 3 0 3.45 4.76 2.76 4.76 5.24a2 2 0 01-2.18 1.81 6.82 6.82 0 01-2.3-.54l-.15 1.47a7.28 7.28 0 002.26.46c2.23 0 4-.93 4-3.3 0-3.65-4.76-3.16-4.76-5.28 0-1.16 1.05-1.48 1.93-1.48a5 5 0 012.08.46zm121.33-9.4h3.3V37.1c0-1.63.52-4.22 2.91-4.22 2.13 0 2.15 2.1 2.15 3.65v6.79h3.31v-8c0-2.87-1.31-5-4.32-5a4.72 4.72 0 00-4.17 2v-1.71h-3.13zm-7.53-15h3.3v-3.19h-3.3zm0 15h3.3V30.61h-3.3zm-15.89 0h3.3V37.1c0-1.63.52-4.22 2.91-4.22 2.13 0 2.15 2.1 2.15 3.65v6.79h3.31v-8c0-2.87-1.31-5-4.32-5a4.72 4.72 0 00-4.17 2h-.05v-1.71H174zm-13.19-6.66c0-1.91 1-3.78 3.19-3.78s3.21 1.83 3.21 3.78c0 2.12-.67 4.39-3.21 4.39s-3.19-2.3-3.19-4.39m-3.45.39a6.65 6.65 0 0013.3 0 6.65 6.65 0 10-13.3 0m-3.78-10.54a17 17 0 00-5.05-.71c-5.85 0-9.45 3.3-9.45 9.2s3.87 8.61 9.45 8.61a21.78 21.78 0 005.57-.88v-9.28h-7v2.71h3.66v4.49a9.2 9.2 0 01-2.27.25c-3.68 0-5.85-2.64-5.85-6.15a5.87 5.87 0 016.33-6.24 11.38 11.38 0 014.44.91zm-17.27 8.81h-6.49V38h6.49zm-9.58-4.54a15.28 15.28 0 00-3.6-.46c-2.59 0-5 1.2-5 3.94 0 4.59 5.75 2.89 5.75 5.38 0 1.24-1.34 1.56-2.18 1.56a7.21 7.21 0 01-3.25-.84l-.2 2.71a14.83 14.83 0 003.75.54c2.69 0 5.33-1.18 5.33-4.14 0-4.59-5.75-3.31-5.75-5.33 0-1.09 1.06-1.41 2-1.41a8.21 8.21 0 013 .54zm-12 9.13a8.56 8.56 0 01-4.22 1.29 3.32 3.32 0 01-3.67-3.2h8.79c0-4.45-1.33-7.67-6-7.67-4 0-5.89 3-5.89 6.71 0 4.17 2.44 6.58 6.63 6.58a8.69 8.69 0 004.37-1zm-7.85-4.19c.15-1.71 1.09-3 2.94-3s2.59 1.38 2.69 3zM97 43.32h3.31V24.81H97zm-4.22-12.71h-3.3v6.22c0 1.63-.52 4.22-2.92 4.22-2.12 0-2.15-2.1-2.15-3.65v-6.79h-3.3v8c0 2.86 1.31 5 4.32 5a5.3 5.3 0 004.17-2h.05v1.73h3.13zM69.61 43.29a9.64 9.64 0 002.64.32A4.33 4.33 0 0077 39.22V26.09h-3.49v11.48c0 1.23 0 3-2.25 3a4.55 4.55 0 01-1.65-.3zm249.94-27.52a8.55 8.55 0 01-4.21 1.29 3.33 3.33 0 01-3.63-3.22h8.78c0-4.44-1.33-7.67-6-7.67-3.95 0-5.9 3-5.9 6.71 0 4.18 2.44 6.59 6.64 6.59a8.63 8.63 0 004.36-1zm-7.84-4.19c.15-1.71 1.08-3 2.94-3s2.59 1.38 2.69 3zm-6.49-5.11h-3.31v6.22c0 1.63-.51 4.22-2.91 4.22-2.12 0-2.15-2.1-2.15-3.65V6.47h-3.3v8c0 2.86 1.3 5 4.31 5a5.34 5.34 0 004.18-2v1.73h3.13zm-22.11 2.27c2.12 0 3 2.27 3 4s-.72 4.12-2.91 4.12-2.8-2.37-2.8-4.12.6-4 2.75-4m3 15.62h3.31V6.47h-3.16v1.8h-.05a4.18 4.18 0 00-3.87-2.1c-4 0-5.41 3.11-5.41 6.62s1.43 6.68 5.41 6.68a4.33 4.33 0 003.62-1.75zM270.2 4.15h3.3V1h-3.3zm0 15h3.3V6.47h-3.3zm-22.8 0h3.3V13c0-1.66.27-4.27 2.47-4.27 1.9 0 1.9 1.67 1.9 2.86v7.58h3.31V13c0-1.66.27-4.27 2.47-4.27 1.9 0 1.9 1.67 1.9 2.86v7.58h3.3v-8c0-2.84-.89-5-4-5a4.39 4.39 0 00-4 2.24 3.7 3.7 0 00-3.74-2.24 4.49 4.49 0 00-3.78 2.07h-.05V6.47h-3.08zm-7.48 0h3.3V.67h-3.3zm-12.2-3.68c0-1.95 2.2-2.2 3.68-2.2h1.44a4.25 4.25 0 01-.69 2.62 2.82 2.82 0 01-2.33 1.14c-1.18 0-2.1-.47-2.1-1.56M226.05 10A6.62 6.62 0 01230 8.59c1.95 0 2.87.69 2.87 2.74H231a10 10 0 00-4.27.74 3.74 3.74 0 00-2.17 3.63c0 2.42 2.19 3.77 4.44 3.77a4.57 4.57 0 003.93-2.19h.07a15.11 15.11 0 00.14 1.9H236c-.07-1-.12-1.88-.15-2.84s0-1.9 0-3.18v-1.63c0-3.75-1.6-5.36-5.47-5.36a11.4 11.4 0 00-4.42 1zm-9.92 5.38c0 2.52 1.43 4.12 4 4.12a9 9 0 002.44-.29l-.1-2.62a2.94 2.94 0 01-1.5.35c-1.26 0-1.56-1-1.56-2.1V8.88h2.94V6.47h-2.94v-3.6l-3.3 1.06v2.54h-2.44v2.41h2.44zm-16.91 3.83h3.31V13c0-1.63.52-4.22 2.91-4.22 2.13 0 2.15 2.1 2.15 3.65v6.79h3.31v-8c0-2.87-1.31-5-4.32-5a4.74 4.74 0 00-4 2h-.05V.67h-3.31zM189.7 8.74c2.15 0 2.74 2.34 2.74 4s-.62 4.12-2.79 4.12-2.92-2.32-2.92-4.12.84-4 3-4m-6.3 15.62h3.31v-6.64a4.34 4.34 0 003.73 1.75c4 0 5.4-3.2 5.4-6.68s-1.43-6.62-5.33-6.62a4.32 4.32 0 00-3.95 2.1h-.05v-1.8h-3.14zm-13.21-11.84c0-1.91 1-3.78 3.19-3.78s3.21 1.82 3.21 3.78c0 2.12-.67 4.39-3.21 4.39s-3.19-2.3-3.19-4.39m-3.45.39a6.65 6.65 0 0013.3 0 6.65 6.65 0 10-13.3 0m-14.31 6.27h3.3V.67h-3.3zm-12.2-3.68c0-1.95 2.2-2.2 3.68-2.2h1.43a4.25 4.25 0 01-.69 2.62 2.81 2.81 0 01-2.32 1.14c-1.18 0-2.1-.47-2.1-1.56m-1.67-5.5a6.6 6.6 0 013.92-1.38c2 0 2.86.69 2.86 2.74h-1.82a10.05 10.05 0 00-4.28.74 3.75 3.75 0 00-2.16 3.63c0 2.42 2.19 3.77 4.44 3.77a4.54 4.54 0 003.92-2.19h.05a17.68 17.68 0 00.15 1.9h2.91c-.07-1-.12-1.88-.15-2.84s-.05-1.9-.05-3.18v-1.66c0-3.75-1.6-5.36-5.47-5.36a11.4 11.4 0 00-4.42 1zm-9.92 5.38c0 2.52 1.43 4.12 4 4.12a9 9 0 002.44-.29l-.1-2.62a3 3 0 01-1.51.35c-1.25 0-1.55-1-1.55-2.1V8.88h2.94V6.47H132v-3.6l-3.3 1.06v2.54h-2.45v2.41h2.45zm-8.62-11.2h3.31V1h-3.31zm0 15h3.31V6.47h-3.31zm-9.6-10.44c2.15 0 2.74 2.34 2.74 4s-.62 4.12-2.79 4.12-2.91-2.32-2.91-4.12.84-4 3-4m-6.29 15.62h3.31v-6.64a4.35 4.35 0 003.73 1.75c4 0 5.4-3.2 5.4-6.68s-1.42-6.62-5.32-6.62a4.32 4.32 0 00-3.95 2.1h-.05v-1.8h-3.16zM91 12.52c0-1.91 1-3.78 3.19-3.78s3.2 1.82 3.2 3.78c0 2.12-.66 4.39-3.2 4.39S91 14.61 91 12.52m-3.45.39a6.65 6.65 0 0013.3 0 6.65 6.65 0 10-13.3 0M93 1.14l-2.71 3.6h2.19l1.73-2.12 1.68 2.12h2.2l-2.59-3.6zm-22.92 18h3.45v-7.52h6.91v7.56h3.45V2h-3.45v7h-6.91V2h-3.45zM51.07 33.76v-4.33a34.08 34.08 0 01-25.55 11A34 34 0 010 29.49v4.26s9.06 9.53 25.51 9.53 25.54-9.52 25.54-9.52"></path><path class="cls-1" d="M51.07 21.8V7.65A46.07 46.07 0 0025.56 0 46.07 46.07 0 000 7.63V21.8a37.91 37.91 0 0123.52-11.1 13.83 13.83 0 104 0 38 38 0 0123.55 11.1"></path></svg>

