<svg xmlns="http://www.w3.org/2000/svg" viewBox="0 0 213.9 34.5" width="60%">
                            <style>
                                .st0 {
                                    fill: #484b42;
                                }

                                .st1 {
                                    fill: #e6272f;
                                }
                            </style>
                            <g id="Calque_3">
                                <path class="st0" d="M66.3 9.8c0 5.6-4.3 9.8-9.8 9.8-5.6 0-9.8-4.2-9.8-9.8C46.7 4.2 51 0 56.5 0c5.5 0 9.8 4.2 9.8 9.8zm-16.6 0c0 4 2.9 6.9 6.8 6.9 3.8 0 6.7-2.9 6.7-6.9s-2.9-6.9-6.7-6.9c-3.9 0-6.8 3-6.8 6.9zM89.6 9.8c0 5.5-4.2 9.5-9.7 9.5h-6.6V.3h6.6c5.5 0 9.7 4 9.7 9.5zm-3.1 0c0-3.9-2.8-6.6-6.6-6.6h-3.6v13.1h3.6c3.8.1 6.6-2.6 6.6-6.5zM112.8 9.8c0 5.5-4.2 9.5-9.7 9.5h-6.6V.3h6.6c5.5 0 9.7 4 9.7 9.5zm-3.1 0c0-3.9-2.8-6.6-6.6-6.6h-3.6v13.1h3.6c3.9.1 6.6-2.6 6.6-6.5zM138.6 9.8c0 5.6-4.3 9.8-9.8 9.8-5.6 0-9.8-4.2-9.8-9.8 0-5.6 4.3-9.8 9.8-9.8 5.5 0 9.8 4.2 9.8 9.8zm-16.6 0c0 4 2.9 6.9 6.8 6.9 3.8 0 6.7-2.9 6.7-6.9s-2.9-6.9-6.7-6.9c-3.9 0-6.8 3-6.8 6.9zM171.3 13.9c0 3.3-2.3 5.4-6.3 5.4h-8.2V.3h8.1c3.7 0 5.8 1.8 5.8 4.9 0 1.9-.8 3.2-2.5 4 2.1.6 3.1 2.4 3.1 4.7zm-6.7-10.6H160v4.9h4.7c2.2 0 3-.9 3-2.4-.1-1.8-.9-2.5-3.1-2.5zm3.6 10.4c0-1.7-.8-2.7-3.3-2.7h-5v5.4h5c2.6 0 3.3-1.1 3.3-2.7zM193.8.3v19h-3.1V11H181v8.3h-3.1V.3h3.1v7.8h9.7V.3h3.1zM204.6 3.3v5h8.7v2.9h-8.7v8.1h-3.1V.3h12.4v2.9h-9.3z"></path>
                                <g>
                                    <path class="st0" d="M51.8 32.3h-3.3l-.8 2.1h-1.3l3-7.7H51l3 7.7h-1.3l-.9-2.1zm-.5-1.2l-1.2-3.2-1.2 3.2h2.4zM61.9 32.2c0 1.7-1.5 2.3-2.9 2.3-2.2 0-3.1-1.2-3.3-2.5H57c.2.9.8 1.4 2 1.4 1 0 1.6-.4 1.6-1.1 0-.7-.6-.8-2.1-1.2-1.5-.3-2.7-.7-2.7-2.2 0-1.5 1.4-2.3 2.8-2.3 1.9 0 2.8 1 3 2.2h-1.3c-.2-.6-.7-1.1-1.8-1.1-1 0-1.6.5-1.6 1.1 0 .6.4.7 1.7 1 2.3.5 3.3.9 3.3 2.4zM70.7 32.2c0 1.7-1.5 2.3-2.9 2.3-2.2 0-3.1-1.2-3.3-2.5h1.3c.2.9.8 1.4 2 1.4 1 0 1.6-.4 1.6-1.1 0-.7-.6-.8-2.1-1.2-1.5-.3-2.7-.7-2.7-2.2 0-1.5 1.4-2.3 2.8-2.3 1.9 0 2.8 1 3 2.2h-1.3c-.2-.6-.7-1.1-1.8-1.1-1 0-1.6.5-1.6 1.1 0 .6.4.7 1.7 1 2.2.5 3.3.9 3.3 2.4zM74.8 27.9v2h3.5V31h-3.5v2.1h3.8v1.2h-5v-7.7h5v1.2h-3.8zM86.9 27.9h-2.4v6.5h-1.2v-6.5H81v-1.2h5.9v1.2zM101.8 26.7v7.7h-1.2v-6L98.2 32H98l-2.4-3.6v6h-1.2v-7.7h1.5l2.2 3.3 2.2-3.3h1.5zM110 32.3h-3.3l-.8 2.1h-1.3l3-7.7h1.6l3 7.7h-1.3l-.9-2.1zm-.4-1.2l-1.2-3.2-1.2 3.2h2.4zM121.3 26.7v7.7h-1.5l-3.9-6 .1 2.7v3.2h-1.2v-7.7h1.5l3.9 5.9-.1-2.7v-3.2h1.2zM129.5 32.3h-3.3l-.8 2.1H124l3-7.7h1.6l3 7.7h-1.3l-.8-2.1zm-.5-1.2l-1.2-3.2-1.2 3.2h2.4zM141.3 30.3v4.1h-1.1v-1.5c-.4 1-1.4 1.7-2.8 1.7-2.2 0-3.9-1.7-3.9-4s1.7-4 4-4c1.8 0 3.2 1.1 3.7 2.6h-1.3c-.4-.9-1.3-1.4-2.4-1.4-1.6 0-2.7 1.2-2.7 2.8 0 1.6 1 2.8 2.7 2.8 1.3 0 2.3-.8 2.5-2h-2.9v-1.1h4.2zM145.8 27.9v2h3.5V31h-3.5v2.1h3.8v1.2h-5v-7.7h5v1.2h-3.8zM159.8 26.7v7.7h-1.2v-6l-2.4 3.6h-.2l-2.4-3.6v6h-1.2v-7.7h1.5l2.2 3.3 2.2-3.3h1.5zM164.4 27.9v2h3.5V31h-3.5v2.1h3.8v1.2h-5v-7.7h5v1.2h-3.8zM177.4 26.7v7.7H176l-3.9-6 .1 2.7v3.2H171v-7.7h1.5l3.9 5.9-.1-2.7v-3.2h1.1zM186.1 27.9h-2.4v6.5h-1.2v-6.5h-2.3v-1.2h5.9v1.2z"></path>
                                </g>
                                <g>
                                    <path class="st1" d="M19.4 33.4c3.3-6.2 3.2-12.3-1.1-17.9-4.7-6.1-11-7.6-18.3-5.4V.6h12.1c.8 0 1.5.1 2.2.4 8.2 3.2 13.5 9 16 17.4.2.7.4 1.5.5 2.3 0 .1 0 .3-.1.5-1.1 2.5-2.7 4.8-4.6 6.8-1.9 2.1-4.1 3.8-6.5 5.3 0 0-.1 0-.2.1z"></path>
                                    <path class="st1" d="M18.1 24.8c0 3.8-1.2 6.7-3.6 9.1-.1.1-.2.2-.5.1-5.6-3.2-10.1-7.6-12.7-13.7-.8-1.9-1.2-3.9-1.3-6 0-.3.1-.4.3-.5 1.9-.9 3.9-1.3 6-1.2 5.9.4 10.4 4.6 11.5 10.1.2.9.3 1.6.3 2.1zM21.5.6h10.9v12.9C30 8.1 26.4 3.9 21.5.6z"></path>
                                </g>
                            </g>
                        </svg>
